<svg width="203" height="35" viewBox="0 0 203 35" fill="none" xmlns="http://www.w3.org/2000/svg">
<path d="M1.016 34H0.44L14.792 0.399998L15.32 0.159998L27.416 34H23.336L19.592 23.44H5.576L1.016 34ZM13.304 5.584L5.768 22.96H19.448L13.304 5.584ZM35.5906 0.447997C36.9986 0.383998 38.3746 0.351998 39.7186 0.351998C41.0946 0.351998 42.5346 0.495998 44.0386 0.783998C45.5746 1.072 47.0786 1.616 48.5506 2.416C50.0546 3.184 51.3186 4.192 52.3426 5.44C53.3986 6.656 54.2466 8.272 54.8866 10.288C55.5266 12.304 55.8466 14.752 55.8466 17.632C55.8466 20.512 55.3666 23.104 54.4066 25.408C53.4786 27.68 52.1986 29.424 50.5666 30.64C47.3986 33.008 43.5746 34.192 39.0946 34.192C37.5266 34.192 35.8786 34.128 34.1506 34H31.7506V0.447997H35.5906ZM35.7346 33.616C36.4066 33.68 37.2546 33.712 38.2786 33.712C39.3026 33.712 40.0706 33.696 40.5826 33.664C41.0946 33.632 41.7986 33.504 42.6946 33.28C43.5906 33.024 44.4226 32.688 45.1906 32.272C45.9586 31.856 46.7586 31.248 47.5906 30.448C48.4546 29.616 49.1906 28.64 49.7986 27.52C51.1746 24.896 51.8626 21.472 51.8626 17.248C51.8626 14.24 51.4946 11.648 50.7586 9.472C50.0226 7.264 49.1746 5.632 48.2146 4.576C47.2866 3.52 46.1506 2.688 44.8066 2.08C43.4626 1.44 42.3906 1.072 41.5906 0.975999C40.7906 0.879998 39.8626 0.831998 38.8066 0.831998C37.7506 0.831998 36.7266 0.879998 35.7346 0.975999V33.616ZM80.2453 0.399998V0.879997H65.1253V15.28H79.1413V15.76H65.1253V33.52H81.3013V34H61.1413V0.399998H80.2453ZM104.072 2.416C101.16 1.296 98.408 0.735999 95.816 0.735999C93.256 0.735999 91.256 1.28 89.816 2.368C88.376 3.456 87.656 4.96 87.656 6.88C87.656 9.216 88.872 11.024 91.304 12.304C92.392 12.848 93.576 13.36 94.856 13.84C96.168 14.288 97.48 14.8 98.792 15.376C100.104 15.952 101.304 16.608 102.392 17.344C103.48 18.08 104.36 19.104 105.032 20.416C105.704 21.696 106.04 23.344 106.04 25.36C106.04 27.344 105.48 29.04 104.36 30.448C103.24 31.856 101.88 32.816 100.28 33.328C98.712 33.808 96.872 34.048 94.76 34.048C90.824 34.048 87.464 33.072 84.68 31.12L84.92 30.736C85.976 31.568 87.336 32.256 89 32.8C90.696 33.312 92.424 33.568 94.184 33.568C96.776 33.568 98.984 32.976 100.808 31.792C102.664 30.576 103.592 28.8 103.592 26.464C103.592 23.904 102.376 21.904 99.944 20.464C98.856 19.824 97.656 19.232 96.344 18.688C95.064 18.144 93.768 17.584 92.456 17.008C91.144 16.4 89.944 15.728 88.856 14.992C86.424 13.392 85.208 11.12 85.208 8.176C85.208 5.84 85.992 3.952 87.56 2.512C89.128 1.04 91.48 0.303999 94.616 0.303999C97.784 0.303999 101 0.847999 104.264 1.936L104.072 2.416ZM134.151 0.399998H134.775V19.6C134.775 24.624 133.783 28.32 131.799 30.688C129.815 33.024 127.223 34.192 124.023 34.192C122.007 34.192 120.295 34.016 118.887 33.664C117.479 33.28 116.151 32.592 114.903 31.6C112.343 29.616 111.063 25.616 111.063 19.6V0.399998H115.047V19.552C115.047 25.376 115.927 29.264 117.687 31.216C118.583 32.176 119.511 32.832 120.471 33.184C121.463 33.536 122.647 33.712 124.023 33.712C127.095 33.712 129.543 32.592 131.367 30.352C133.223 28.08 134.151 24.48 134.151 19.552V0.399998ZM176.147 0.399998C176.755 1.008 177.059 1.792 177.059 2.752C177.059 3.552 176.883 4.368 176.531 5.2L165.203 34L164.675 34.24L158.339 14.128L150.515 34L149.987 34.24L139.331 0.399998H143.411L152.003 28.816L158.099 13.36L154.019 0.399998H158.099L166.691 28.816L175.955 5.2C176.307 4.4 176.483 3.568 176.483 2.704C176.483 1.84 176.243 1.168 175.763 0.688L176.147 0.399998ZM176.188 34H175.612L189.964 0.399998L190.492 0.159998L202.588 34H198.508L194.764 23.44H180.748L176.188 34ZM188.476 5.584L180.94 22.96H194.62L188.476 5.584Z" fill="#407BFF"/>
</svg>
