<?xml version="1.0" encoding="utf-8"?>
<!-- Generator: Adobe Illustrator 27.5.0, SVG Export Plug-In . SVG Version: 6.00 Build 0)  -->
<svg version="1.1" xmlns="http://www.w3.org/2000/svg" xmlns:xlink="http://www.w3.org/1999/xlink" x="0px" y="0px"
	 viewBox="0 0 500 500" style="enable-background:new 0 0 500 500;" xml:space="preserve">
<g id="Background_Complete">
	<g>
		<rect y="382.398" style="fill:#EBEBEB;" width="500" height="0.25"/>
		<rect x="363" y="398.494" style="fill:#EBEBEB;" width="86.901" height="0.25"/>
		<rect x="357.665" y="389.208" style="fill:#EBEBEB;" width="8.693" height="0.25"/>
		<rect x="280.124" y="397.5" style="fill:#EBEBEB;" width="19.192" height="0.25"/>
		<rect x="52.459" y="390.888" style="fill:#EBEBEB;" width="21.597" height="0.25"/>
		<rect x="82.959" y="390.888" style="fill:#EBEBEB;" width="27.93" height="0.25"/>
		<rect x="207.667" y="394.986" style="fill:#EBEBEB;" width="46.838" height="0.25"/>
		<path style="fill:#EBEBEB;" d="M237.014,337.8H43.915c-3.147,0-5.708-2.56-5.708-5.708V60.66c0-3.147,2.561-5.708,5.708-5.708
			h193.099c3.146,0,5.707,2.561,5.707,5.708v271.432C242.721,335.239,240.16,337.8,237.014,337.8z M43.915,55.203
			c-3.01,0-5.458,2.448-5.458,5.458v271.432c0,3.01,2.448,5.458,5.458,5.458h193.099c3.009,0,5.457-2.448,5.457-5.458V60.66
			c0-3.009-2.448-5.458-5.457-5.458H43.915z"/>
		<path style="fill:#EBEBEB;" d="M453.31,337.8H260.212c-3.147,0-5.707-2.56-5.707-5.708V60.66c0-3.147,2.561-5.708,5.707-5.708
			H453.31c3.148,0,5.708,2.561,5.708,5.708v271.432C459.019,335.239,456.458,337.8,453.31,337.8z M260.212,55.203
			c-3.009,0-5.457,2.448-5.457,5.458v271.432c0,3.01,2.448,5.458,5.457,5.458H453.31c3.01,0,5.458-2.448,5.458-5.458V60.66
			c0-3.009-2.448-5.458-5.458-5.458H260.212z"/>
	</g>
	<g>
		<g>
			<g>
				<path style="fill:#E0E0E0;" d="M258.596,319.839H193.96l-6.161-107.041c-0.153-2.652,1.873-4.801,4.525-4.801h55.032
					c2.652,0,4.925,2.15,5.078,4.801L258.596,319.839z"/>
				<path style="fill:#EBEBEB;" d="M265.121,319.839h-64.635l-6.161-107.041c-0.153-2.652,1.873-4.801,4.525-4.801h55.032
					c2.652,0,4.925,2.15,5.078,4.801L265.121,319.839z"/>
				<path style="fill:#E0E0E0;" d="M246.776,319.839h-49.8v-8.549c0-2.652,2.15-4.801,4.801-4.801h44.998V319.839z"/>
				<path style="fill:#EBEBEB;" d="M298.941,319.839h-66.883v-8.549c0-2.652,2.15-4.801,4.801-4.801h57.28
					c2.652,0,4.801,2.15,4.801,4.801V319.839z"/>
			</g>
			<g>
				<rect x="193.96" y="319.839" style="fill:#E0E0E0;" width="4.432" height="62.56"/>
				<rect x="226.487" y="319.839" style="fill:#E0E0E0;" width="4.432" height="62.56"/>
				<rect x="260.967" y="319.839" style="fill:#E0E0E0;" width="4.432" height="62.56"/>
				<rect x="293.493" y="319.839" style="fill:#E0E0E0;" width="4.432" height="62.56"/>
			</g>
		</g>
		<g>
			<g>
				<rect x="90.732" y="270.43" style="fill:#E6E6E6;" width="98.733" height="5.753"/>
				<rect x="97.29" y="276.182" style="fill:#EBEBEB;" width="92.175" height="99.257"/>
				
					<rect x="189.465" y="276.182" transform="matrix(-1 -1.224647e-16 1.224647e-16 -1 601.1848 651.622)" style="fill:#F5F5F5;" width="222.254" height="99.257"/>
				
					<rect x="97.29" y="276.182" transform="matrix(-1 -1.224647e-16 1.224647e-16 -1 509.0097 556.6221)" style="fill:#E0E0E0;" width="314.43" height="4.257"/>
				
					<rect x="189.465" y="270.43" transform="matrix(-1 -1.224647e-16 1.224647e-16 -1 607.7431 546.6121)" style="fill:#F0F0F0;" width="228.813" height="5.753"/>
				<polygon style="fill:#EBEBEB;" points="97.29,375.44 97.29,382.398 115.651,375.44 				"/>
				<polygon style="fill:#F5F5F5;" points="189.465,375.44 189.465,382.398 207.827,375.44 				"/>
				<polygon style="fill:#F5F5F5;" points="411.72,375.44 411.72,382.398 393.358,375.44 				"/>
				<polygon style="fill:#EBEBEB;" points="189.465,375.44 189.465,382.398 171.104,375.44 				"/>
				<polygon style="fill:#E0E0E0;" points="319.544,375.44 319.544,382.398 301.183,375.44 				"/>
				<polygon style="fill:#E0E0E0;" points="319.544,375.44 319.544,382.398 337.906,375.44 				"/>
			</g>
		</g>
		<g>
			<g>
				<g>
					<g>
						<rect x="206.48" y="77.327" style="fill:#E6E6E6;" width="82.029" height="103.789"/>
						<rect x="211.491" y="77.327" style="fill:#F5F5F5;" width="82.029" height="103.789"/>
						
							<rect x="205.284" y="97.203" transform="matrix(-1.836970e-16 1 -1 -1.836970e-16 381.7271 -123.2842)" style="fill:#FFFFFF;" width="94.443" height="64.038"/>
						
							<rect x="235.409" y="127.327" transform="matrix(-1.836970e-16 1 -1 -1.836970e-16 411.8517 -153.4088)" style="fill:#E6E6E6;" width="94.443" height="3.789"/>
						<rect x="215.212" y="124.175" style="fill:#F5F5F5;" width="74.587" height="6.274"/>
						<rect x="215.212" y="103.317" style="fill:#F5F5F5;" width="74.587" height="6.274"/>
					</g>
				</g>
			</g>
			<g>
				<g>
					<g>
						<rect x="317.074" y="77.327" style="fill:#E6E6E6;" width="82.029" height="103.789"/>
						<rect x="322.086" y="77.327" style="fill:#F5F5F5;" width="82.029" height="103.789"/>
						
							<rect x="315.879" y="97.203" transform="matrix(-1.836970e-16 1 -1 -1.836970e-16 492.322 -233.8791)" style="fill:#FFFFFF;" width="94.443" height="64.038"/>
						
							<rect x="346.004" y="127.327" transform="matrix(-1.836970e-16 1 -1 -1.836970e-16 522.4466 -264.0037)" style="fill:#E6E6E6;" width="94.443" height="3.789"/>
						<rect x="325.807" y="153.921" style="fill:#F5F5F5;" width="74.587" height="6.274"/>
						<rect x="325.807" y="103.317" style="fill:#F5F5F5;" width="74.587" height="6.274"/>
					</g>
				</g>
			</g>
			<g>
				<g>
					<g>
						<rect x="95.885" y="77.327" style="fill:#E6E6E6;" width="82.029" height="103.789"/>
						<rect x="100.896" y="77.327" style="fill:#F5F5F5;" width="82.029" height="103.789"/>
						
							<rect x="94.689" y="97.203" transform="matrix(-1.836970e-16 1 -1 -1.836970e-16 271.1323 -12.6894)" style="fill:#FFFFFF;" width="94.443" height="64.038"/>
						
							<rect x="124.814" y="127.327" transform="matrix(-1.836970e-16 1 -1 -1.836970e-16 301.2569 -42.814)" style="fill:#E6E6E6;" width="94.443" height="3.789"/>
						<rect x="104.617" y="161.476" style="fill:#F5F5F5;" width="74.587" height="6.274"/>
						<rect x="104.617" y="114.258" style="fill:#F5F5F5;" width="74.587" height="6.274"/>
					</g>
				</g>
			</g>
		</g>
		<g>
			<path style="fill:#E6E6E6;" d="M369.818,231.982h-15.84c0,0,2.75,8.575,2.75,13.621c0,5.046-12.048,24.826,5.17,24.826
				c17.217,0,5.17-19.781,5.17-24.826C367.069,240.557,369.818,231.982,369.818,231.982z"/>
			<path style="fill:#F0F0F0;" d="M311.289,262.18c0,4.537,8.936,8.25,19.857,8.25h9.858c10.922,0,19.857-3.712,19.857-8.25H311.289
				z"/>
		</g>
		<g>
			<g>
				<rect x="123.945" y="249.672" style="fill:#E6E6E6;" width="17.404" height="20.758"/>
				
					<rect x="141.348" y="249.672" transform="matrix(-1 -1.224647e-16 1.224647e-16 -1 300.1007 520.1011)" style="fill:#F5F5F5;" width="17.404" height="20.758"/>
			</g>
			<g>
				<rect x="147.5" y="253.93" style="fill:#E6E6E6;" width="13.833" height="16.499"/>
				
					<rect x="161.333" y="253.93" transform="matrix(-1 -1.224647e-16 1.224647e-16 -1 336.5002 524.3598)" style="fill:#F5F5F5;" width="13.833" height="16.499"/>
			</g>
		</g>
	</g>
</g>
<g id="Background_Simple" style="display:none;">
	<g style="display:inline;">
		<path style="fill:#407BFF;" d="M193.867,141.062c20.187,19.212,48.073,28.945,76.239,32.172
			c135.136,4.885,182.008,179.044,18.306,177.164c-82.658,1.461-132.106-40.527-175.968-88.772
			c-92.883-93.256-21.583-161.966,9.874-168.796C153.603,86.666,173.938,123.057,193.867,141.062z"/>
		<path style="opacity:0.9;fill:#FFFFFF;" d="M193.867,141.062c20.187,19.212,48.073,28.945,76.239,32.172
			c135.136,4.885,182.008,179.044,18.306,177.164c-82.658,1.461-132.106-40.527-175.968-88.772
			c-92.883-93.256-21.583-161.966,9.874-168.796C153.603,86.666,173.938,123.057,193.867,141.062z"/>
	</g>
</g>
<g id="Shadow_1_">
	<ellipse id="_x3C_Path_x3E__166_" style="fill:#F5F5F5;" cx="250" cy="416.238" rx="193.889" ry="11.323"/>
</g>
<g id="Online_Shop">
	<g>
		<path style="fill:#263238;" d="M286.757,357.354H151.98c-6.6,0-12.248-5.4-12.551-12l-11.17-243.333
			c-0.303-6.6,4.849-12,11.449-12h134.778c6.6,0,12.248,5.4,12.551,12l11.17,243.333
			C298.51,351.954,293.357,357.354,286.757,357.354z"/>
		<rect x="174.167" y="85.812" style="fill:#407BFF;" width="20.333" height="1"/>
		<rect x="162.025" y="85.812" style="fill:#407BFF;" width="5.475" height="1"/>
		<path style="fill:#407BFF;" d="M288.175,356.646H153.397c-6.6,0-12.248-5.4-12.551-12l-11.17-243.333
			c-0.303-6.6,4.849-12,11.449-12h134.778c6.6,0,12.248,5.4,12.551,12l11.17,243.333
			C299.927,351.246,294.775,356.646,288.175,356.646z"/>
		<path style="fill:#FFFFFF;" d="M153.167,351.646c-3.859,0-7.144-3.14-7.321-7l-11.17-243.333c-0.177-3.86,2.819-7,6.679-7h134.778
			c3.859,0,7.144,3.14,7.321,7l11.17,243.333c0.177,3.86-2.819,7-6.679,7H153.167z"/>
		<g>
			<path style="fill:#E0E0E0;" d="M210.789,157.292c-12.614,0-23.349-10.263-23.928-22.877c-0.281-6.123,1.842-11.879,5.977-16.208
				c4.128-4.322,9.77-6.703,15.883-6.703c12.614,0,23.349,10.263,23.928,22.877c0.281,6.123-1.842,11.878-5.976,16.208
				C222.544,154.911,216.903,157.292,210.789,157.292z M208.721,112.223c-5.915,0-11.371,2.302-15.363,6.481
				c-3.997,4.186-6.05,9.753-5.777,15.678c0.562,12.236,10.973,22.191,23.209,22.191c5.915,0,11.372-2.302,15.363-6.481
				c3.998-4.185,6.05-9.753,5.777-15.677C231.368,122.178,220.957,112.223,208.721,112.223z"/>
			<g>
				<path style="fill:#407BFF;" d="M193.612,150.121h2.305c-0.566,0.628-0.897,1.471-0.854,2.404
					c0.089,1.937,1.731,3.507,3.668,3.507c1.937,0,3.435-1.57,3.346-3.507c-0.043-0.933-0.452-1.775-1.074-2.404h18.949
					c-0.565,0.628-0.896,1.471-0.854,2.404c0.089,1.937,1.731,3.507,3.668,3.507c1.937,0,3.434-1.57,3.345-3.507
					c-0.043-0.933-0.452-1.775-1.074-2.404h2.305l-0.101-2.206h-33.729L193.612,150.121z"/>
				<polygon style="fill:#407BFF;" points="235.931,119.229 231.439,119.229 228.445,119.229 186.678,119.229 194.537,144.447 
					225.895,144.447 230.954,121.436 236.032,121.436 				"/>
			</g>
		</g>
		<g>
			<path style="fill:#E0E0E0;" d="M212.927,294.708h-53.722c-0.182,0-0.332-0.143-0.34-0.325l-2.466-53.722
				c-0.004-0.093,0.029-0.184,0.094-0.25c0.064-0.067,0.153-0.105,0.246-0.105h53.722c0.182,0,0.332,0.143,0.34,0.325l2.466,53.722
				c0.004,0.093-0.029,0.184-0.094,0.25C213.108,294.67,213.02,294.708,212.927,294.708z M159.53,294.027h53.04l-2.435-53.042
				h-53.04L159.53,294.027z"/>
			<path style="fill:#E0E0E0;" d="M195.51,248.257h-23.121c-0.317,0-0.563,0.257-0.548,0.575l0.07,1.518l0.521,11.339l1.105,24.083
				c0.025,0.543,0.486,0.984,1.029,0.984h7.797c0.518,0,0.928-0.402,0.939-0.918l0.506-24.148h1.517l2.723,24.148
				c0.058,0.517,0.506,0.918,1.024,0.918h7.797c0.543,0,0.964-0.44,0.939-0.984l-1.105-24.083l-0.52-11.339l-0.07-1.518
				C196.096,248.515,195.827,248.257,195.51,248.257z"/>
		</g>
		<g>
			<path style="fill:#E0E0E0;" d="M276.648,294.708h-53.722c-0.182,0-0.332-0.143-0.34-0.325l-2.466-53.722
				c-0.004-0.093,0.029-0.184,0.094-0.25c0.064-0.067,0.153-0.105,0.246-0.105h53.722c0.182,0,0.332,0.143,0.34,0.325l2.466,53.722
				c0.004,0.093-0.029,0.184-0.094,0.25C276.83,294.67,276.741,294.708,276.648,294.708z M223.252,294.027h53.04l-2.435-53.042
				h-53.04L223.252,294.027z"/>
			<g>
				<polygon style="fill:#E0E0E0;" points="261.417,287.436 237.522,287.436 235.788,249.67 259.684,249.67 				"/>
				<polygon style="fill:#E0E0E0;" points="231.71,267.844 226.387,257.32 235.788,249.67 241.001,257.785 				"/>
				<polygon style="fill:#E0E0E0;" points="265.43,267.844 269.787,257.32 259.684,249.67 255.216,257.785 				"/>
				<path style="fill:#EBEBEB;" d="M241.836,249.671c0.15,3.258,2.913,5.9,6.171,5.9c3.259,0,5.779-2.642,5.629-5.9H241.836z"/>
			</g>
		</g>
		<g>
			<path style="fill:#407BFF;" d="M273.724,231.146h-53.722c-0.268,0-0.487-0.21-0.499-0.477l-2.466-53.722
				c-0.007-0.136,0.043-0.27,0.138-0.368c0.094-0.099,0.225-0.155,0.361-0.155h53.722c0.268,0,0.487,0.21,0.499,0.477l2.466,53.722
				c0.007,0.136-0.043,0.27-0.138,0.368C273.991,231.09,273.86,231.146,273.724,231.146z M220.48,230.146H273.2l-2.42-52.722H218.06
				L220.48,230.146z"/>
			<g>
				<path style="fill:#407BFF;" d="M262.816,197.895l-5.826-0.423l0.133-0.443c0.473-1.577-0.773-3.221-2.441-3.221h-6.063
					c-1.715,0-2.81,1.73-2.103,3.324l0.755,1.702l-0.496,0.129l-1.392,0.365l-2.321,0.604l-1.392,0.358l-2.306,0.604l-1.393,0.358
					l-5.738,1.494l0.001,0.013c-2.382,0.685-4.381,2.109-4.265,4.625c0.119,2.591,2.316,4.691,4.906,4.691l-0.002-0.04l0.003,0.043
					h28.168c2.192,0,3.892-1.782,3.791-3.981l-0.392-8.534C264.402,198.687,263.693,197.959,262.816,197.895z"/>
				<polygon style="opacity:0.3;fill:#FFFFFF;" points="250.374,200.7 248.996,201.073 245.383,199.328 246.775,198.963 				"/>
				<polygon style="opacity:0.3;fill:#FFFFFF;" points="246.714,201.692 245.336,202.064 241.669,200.29 243.061,199.932 				"/>
				<polygon style="opacity:0.3;fill:#FFFFFF;" points="243.053,202.676 241.683,203.049 237.97,201.252 239.363,200.894 				"/>
				<path style="opacity:0.3;fill:#FFFFFF;" d="M264.727,205.748l0.108,2.349c0.101,2.199-1.599,3.981-3.791,3.981h-4.66
					c0.497-3.638,3.554-6.39,7.379-6.39C264.09,205.688,264.412,205.71,264.727,205.748z"/>
			</g>
		</g>
		<g>
			<path style="fill:#E0E0E0;" d="M210.002,230.986H156.28c-0.182,0-0.332-0.143-0.34-0.325l-2.466-53.722
				c-0.004-0.093,0.029-0.184,0.094-0.251c0.064-0.067,0.153-0.105,0.246-0.105h53.722c0.182,0,0.332,0.143,0.34,0.325l2.466,53.722
				c0.004,0.093-0.029,0.184-0.094,0.25C210.184,230.948,210.095,230.986,210.002,230.986z M156.605,230.305h53.04l-2.435-53.041
				h-53.04L156.605,230.305z"/>
			<g>
				<path style="fill:#E0E0E0;" d="M200.971,194.876l0.205,4.459c0.09,1.954-1.531,3.544-3.478,3.278
					c-0.385-0.052-0.776-0.078-1.172-0.078c-1.305,0-2.524,0.292-3.604,0.818c-1.346,0.656-2.474,1.668-3.267,2.914
					c-0.872,1.37-1.342,3.018-1.26,4.797l0.009,0.201c0.04,0.87-0.162,1.688-0.559,2.382c-0.731,1.324-2.151,2.213-3.812,2.213
					h-3.141c-1.662,0-3.163-0.889-4.016-2.213c-0.46-0.695-0.738-1.512-0.778-2.382l-0.009-0.201
					c-0.082-1.778-0.702-3.427-1.7-4.797c-0.908-1.246-2.129-2.259-3.535-2.914c-1.128-0.526-2.374-0.818-3.679-0.818
					c-0.396,0-0.784,0.026-1.165,0.078c-1.922,0.266-3.689-1.324-3.779-3.278l-0.205-4.459c-0.037-0.798,0.577-1.441,1.375-1.441
					h36.062C200.262,193.435,200.934,194.078,200.971,194.876z"/>
				<path style="fill:#EBEBEB;" d="M187.845,213.647c-0.731,1.324-2.151,2.213-3.812,2.213h-3.141c-1.662,0-3.163-0.889-4.016-2.213
					c0.777-2.168,2.836-3.7,5.315-3.7C184.671,209.947,186.87,211.479,187.845,213.647z"/>
			</g>
		</g>
		<g>
			<path style="fill:#407BFF;" d="M240.602,338.874h-41.263c-4.787,0-8.884-3.917-9.103-8.704l-0.533-11.605
				c-0.22-4.787,3.517-8.704,8.304-8.704h41.263c4.787,0,8.884,3.917,9.103,8.704l0.533,11.605
				C249.126,334.957,245.389,338.874,240.602,338.874z"/>
			<g>
				<path style="fill:#FFFFFF;" d="M199.54,318.177h7.041c1.174,0,2.088,0.291,2.743,0.872c0.655,0.581,1.002,1.301,1.042,2.159
					c0.033,0.72-0.163,1.337-0.588,1.852c-0.283,0.343-0.708,0.614-1.275,0.814c0.884,0.21,1.544,0.572,1.98,1.084
					c0.436,0.512,0.672,1.156,0.707,1.931c0.029,0.631-0.092,1.198-0.362,1.702c-0.27,0.504-0.653,0.902-1.149,1.196
					c-0.307,0.183-0.777,0.316-1.41,0.399c-0.842,0.111-1.401,0.166-1.678,0.166h-6.493L199.54,318.177z M203.554,322.952h1.636
					c0.587,0,0.99-0.101,1.211-0.303c0.22-0.202,0.322-0.494,0.304-0.876c-0.016-0.354-0.144-0.631-0.383-0.83
					c-0.239-0.199-0.643-0.299-1.214-0.299h-1.661L203.554,322.952z M203.773,327.735h1.918c0.648,0,1.099-0.115,1.354-0.345
					c0.255-0.23,0.374-0.538,0.356-0.926c-0.016-0.36-0.161-0.649-0.434-0.868c-0.273-0.219-0.739-0.328-1.398-0.328h-1.91
					L203.773,327.735z"/>
				<path style="fill:#FFFFFF;" d="M220.241,318.177h3.753l0.333,7.252c0.033,0.719-0.048,1.398-0.243,2.037
					c-0.195,0.639-0.521,1.198-0.978,1.677c-0.457,0.478-0.944,0.814-1.461,1.007c-0.718,0.271-1.589,0.407-2.613,0.407
					c-0.592,0-1.241-0.042-1.945-0.125c-0.704-0.083-1.297-0.248-1.779-0.493c-0.482-0.246-0.928-0.596-1.339-1.05
					c-0.411-0.454-0.7-0.921-0.866-1.403c-0.268-0.774-0.416-1.461-0.443-2.058l-0.333-7.252h3.753l0.341,7.425
					c0.03,0.664,0.238,1.182,0.624,1.556c0.385,0.373,0.904,0.56,1.558,0.56c0.648,0,1.147-0.184,1.498-0.551
					c0.351-0.368,0.511-0.889,0.48-1.564L220.241,318.177z"/>
				<path style="fill:#FFFFFF;" d="M225.256,318.177h4.178l2.641,4.107l2.269-4.107h4.156l-4.408,7.075l0.234,5.098h-3.77
					l-0.234-5.098L225.256,318.177z"/>
			</g>
		</g>
	</g>
</g>
<g id="Character_1_">
	<g>
		<g>
			<g>
				<path style="fill:#FF8B7B;" d="M342.413,191.278c0.974,1.214,1.748,2.278,2.544,3.445c0.786,1.145,1.535,2.308,2.267,3.48
					c1.45,2.354,2.743,4.801,3.954,7.292c0.615,1.24,1.167,2.517,1.724,3.789c0.506,1.298,1.041,2.581,1.479,3.911
					c0.962,2.619,1.641,5.361,2.251,8.109l0.041,0.183c0.058,0.26,0.074,0.532,0.056,0.784c-0.159,2.115-0.389,4.214-0.761,6.269
					c-0.346,2.061-0.81,4.089-1.346,6.086c-0.557,1.993-1.173,3.959-1.863,5.896c-0.728,1.94-1.473,3.808-2.427,5.725
					c-0.517,1.04-1.78,1.463-2.819,0.946c-0.879-0.437-1.317-1.406-1.12-2.323l0.021-0.094c0.393-1.827,0.802-3.77,1.117-5.67
					c0.357-1.902,0.639-3.815,0.86-5.723c0.255-1.903,0.421-3.807,0.552-5.695c0.15-1.891,0.15-3.768,0.161-5.628l0.097,0.967
					c-0.686-2.363-1.42-4.714-2.374-7.014c-0.935-2.3-1.967-4.573-3.118-6.799c-1.142-2.228-2.402-4.404-3.73-6.535
					c-0.663-1.065-1.341-2.122-2.045-3.153c-0.694-1.008-1.455-2.091-2.105-2.955l-0.084-0.112
					c-1.403-1.864-1.029-4.512,0.835-5.915C338.406,189.171,340.991,189.509,342.413,191.278z"/>
				<path style="fill:#FF8B7B;" d="M347.49,242.919l-5.063,6.636l8.394-0.408c0,0,2.33-4.768,0.322-7.555L347.49,242.919z"/>
				<polygon style="fill:#FF8B7B;" points="342.512,256.502 349.522,255.78 350.822,249.146 342.427,249.554 				"/>
			</g>
			<g>
				<path style="fill:#FF8B7B;" d="M328.506,171.551c-0.794,4.934-1.446,13.947,2.095,17.1c0,0-3.251,6.604-11.47,10.379
					c-6.696-3.883-3.762-9.858-3.762-9.858c5.421-1.492,5.141-5.542,4.059-9.318L328.506,171.551z"/>
				<path style="fill:#263238;" d="M310.794,161.928c-0.094,0.66-0.52,1.145-0.951,1.084c-0.431-0.061-0.705-0.646-0.611-1.306
					c0.094-0.66,0.52-1.145,0.951-1.084C310.614,160.683,310.888,161.268,310.794,161.928z"/>
				<path style="fill:#263238;" d="M310.368,160.685l-1.52-0.682C308.848,160.003,309.485,161.357,310.368,160.685z"/>
				<path style="fill:#FF5652;" d="M310.421,163.416c0,0-1.524,2.682-2.951,3.878c0.756,0.937,2.29,0.776,2.29,0.776
					L310.421,163.416z"/>
				<path style="fill:#263238;" d="M313.134,158.649c0.095,0.023,0.198,0.011,0.288-0.042c0.187-0.109,0.25-0.349,0.142-0.535
					c-1.089-1.871-2.893-1.984-2.97-1.988c-0.216-0.011-0.4,0.155-0.411,0.371c-0.011,0.215,0.155,0.399,0.37,0.411
					c0.071,0.004,1.468,0.111,2.333,1.6C312.943,158.561,313.034,158.624,313.134,158.649z"/>
				<path style="fill:#FF8B7B;" d="M333.368,162.385c-1.65,8.035-2.177,11.471-6.862,15.049c-7.047,5.383-16.555,1.599-17.339-6.767
					c-0.706-7.53,2.111-19.404,10.503-21.502C327.939,147.098,335.018,154.35,333.368,162.385z"/>
				<path style="fill:#FF8B7B;" d="M311.9,240.264c0,0-2.054,62.231-1.512,87.434c0.563,26.215,0.815,87.435,0.815,87.435h4.58
					c0,0,12.589-50.879,9.466-87.435c4.726-28.07,7.917-87.434,7.917-87.434H311.9z"/>
				<path style="fill:#FF8B7B;" d="M313.267,240.264c0,0,16.453,62.231,22.718,87.434c6.516,26.215,20.67,87.435,20.67,87.435h4.58
					c0,0,1.035-50.879-10.389-87.435c-1.648-28.07-11.939-87.434-11.939-87.434H313.267z"/>
				<path style="fill:#407BFF;" d="M302.09,195.914c0.069-3.161,2.361-5.831,5.478-6.361c2.677-0.456,6.18-0.987,9.463-1.286
					c4.965-0.453,10.803-0.276,15.242,0c1.954,0.121,3.849,0.265,5.572,0.465c4.307,0.499,7.249,4.581,6.347,8.822
					c-4.718,22.179-4.125,30.359-3.616,42.711c13.829,20.217,10.309,48.903,12.006,73.403l-44.26,15.5
					c-2.323-40.385-1.311-82.722,0.123-88.903C304.233,214.37,301.958,201.907,302.09,195.914z"/>
				<polygon style="opacity:0.2;fill:#263238;" points="328.889,297.302 330.889,269.302 339.12,264.025 				"/>
				<path style="fill:#263238;" d="M340.885,240.881l-32.776,2.435c-0.467,0.035-0.828-0.271-0.848-0.717l-0.122-2.731
					c-0.024-0.548,0.468-1.077,1.041-1.12l32.776-2.435c0.467-0.035,0.828,0.271,0.848,0.717l0.122,2.731
					C341.95,240.309,341.458,240.838,340.885,240.881z"/>
				<polygon style="fill:#FF8B7B;" points="319.889,187.722 327.667,189.583 329.278,187.861 326.722,187.25 				"/>
				<path style="fill:#FF8B7B;" d="M310.056,195.269c0.044,1.453,0.035,2.651-0.033,3.949c-0.057,1.275-0.148,2.539-0.267,3.802
					c-0.23,2.525-0.642,5.028-1.128,7.519c-1.017,4.979-2.501,9.884-4.72,14.58l-0.891,1.79c-0.167,0.316-0.259,0.552-0.487,0.934
					c-0.247,0.412-0.501,0.782-0.754,1.117c-1.025,1.38-2.649,2.802-4.711,3.419c-2.056,0.63-4.079,0.366-5.639-0.142
					c-1.586-0.526-2.873-1.273-4.038-2.066c-2.306-1.612-4.111-3.485-5.799-5.395c-0.845-0.953-1.609-1.962-2.353-2.975
					c-0.749-1.024-1.439-2.026-2.12-3.157c-0.599-0.994-0.279-2.286,0.715-2.885c0.855-0.515,1.93-0.351,2.596,0.338l0.052,0.055
					c1.566,1.621,3.287,3.266,5.009,4.731c1.715,1.48,3.543,2.814,5.324,3.748c0.88,0.466,1.762,0.813,2.492,0.946
					c0.74,0.146,1.227,0.065,1.465-0.081c0.239-0.143,0.508-0.388,0.876-0.953c0.096-0.154,0.169-0.29,0.222-0.399
					c0.072-0.139,0.198-0.467,0.295-0.69l0.624-1.484c1.654-4.116,2.792-8.531,3.609-12.987c0.396-2.238,0.649-4.503,0.881-6.765
					c0.108-1.132,0.193-2.266,0.245-3.394c0.054-1.104,0.091-2.312,0.089-3.263v-0.161c-0.003-2.333,1.885-4.226,4.217-4.229
					C308.118,191.171,309.984,192.997,310.056,195.269z"/>
				<path style="fill:#FF8B7B;" d="M281.319,217.144l-5.155-6.565l-1.709,8.229c0,0,4.031,3.451,7.233,2.206L281.319,217.144z"/>
				<polygon style="fill:#FF8B7B;" points="269.417,208.92 268.359,215.886 274.455,218.808 276.165,210.579 				"/>
				<path style="fill:#263238;" d="M315.538,165.213c2.417,3.033-8.012,5.482-4.237,13.948c3.775,8.466-6.032,4.959-0.524,16.581
					c5.406,11.407,24.823,17.386,36.001,12.703c-4.325-0.793-7.795-6.145-4.151-8.779c5.229-3.781,6.537-9.229,3.71-14.217
					c-2.827-4.988-9.738-12.837-6.555-18.95c3.891-7.473,4.033-12.73-3.987-18.582c-8.175-5.965-26.541-10.956-25.987,0.138
					C310.363,159.148,315.538,165.213,315.538,165.213z"/>
				<path style="fill:#407BFF;" d="M336.225,173.393l-9.553-0.937c-2.106-0.206-3.4-2.073-2.876-4.148l0,0
					c0.524-2.075,2.677-3.604,4.783-3.397l9.553,0.937c2.106,0.206,3.401,2.073,2.876,4.148v0
					C340.484,172.071,338.332,173.6,336.225,173.393z"/>
				<path style="fill:#FF8B7B;" d="M317.961,164.451c-0.567,1.603-1.822,2.795-3.093,3.376c-1.911,0.874-3.194-0.756-2.936-2.731
					c0.232-1.778,1.506-4.375,3.556-4.419C317.508,160.632,318.61,162.618,317.961,164.451z"/>
			</g>
			<path style="fill:#263238;" d="M310.887,413.707h5.43c0.3,0,0.56,0.209,0.625,0.502l1.046,5.246
				c0.15,0.677-0.364,1.318-1.057,1.307c-2.894-0.049-3.768-0.219-7.406-0.219c-3.115,0-3.807,0.232-8.795,0.232
				c-3.016,0-2.261-2.447-0.983-2.636c4.5-0.663,6.391-0.965,9.697-3.402C309.955,414.361,310.253,413.707,310.887,413.707z"/>
			<path style="fill:#263238;" d="M355.872,413.707h5.43c0.3,0,0.56,0.209,0.625,0.502l1.046,5.246
				c0.15,0.677-0.364,1.318-1.057,1.307c-2.894-0.049-1.96,0.013-5.598,0.013c-1.32,0-2.458,0-5.194,0
				c-3.016,0-2.244-2.353-0.983-2.636c2.483-0.556,3.122-1.445,4.287-3.402C354.754,414.192,355.238,413.707,355.872,413.707z"/>
		</g>
	</g>
</g>
</svg>
